HIERARCHY
ROOT hip
{
  OFFSET 0 0 0
  CHANNELS 6 Xposition Yposition Zposition Zrotation Yrotation Xrotation
  JOINT abdomen
  {
    OFFSET 0 20.6881 -0.73152
    CHANNELS 3 Zrotation Xrotation Yrotation
    JOINT chest
    {
      OFFSET 0 11.7043 -0.48768
      CHANNELS 3 Zrotation Xrotation Yrotation
      JOINT neck
      {
        OFFSET 0 22.1894 -2.19456
        CHANNELS 3 Zrotation Xrotation Yrotation
        JOINT head
        {
          OFFSET -0.24384 7.07133 1.2192
          CHANNELS 3 Zrotation Xrotation Yrotation
          JOINT leftEye
          {
            OFFSET 4.14528 8.04674 8.04672
            CHANNELS 3 Zrotation Xrotation Yrotation
            End Site
            {
              OFFSET 1 0 0
            }
          }
          JOINT rightEye
          {
            OFFSET -3.6576 8.04674 8.04672
            CHANNELS 3 Zrotation Xrotation Yrotation
            End Site
            {
              OFFSET 1 0 0
            }
          }
        }
      }
      JOINT rCollar
      {
        OFFSET -2.68224 19.2634 -4.8768
        CHANNELS 3 Zrotation Xrotation Yrotation
        JOINT rShldr
        {
          OFFSET -8.77824 -1.95073 1.46304
          CHANNELS 3 Zrotation Xrotation Yrotation
          JOINT rForeArm
          {
            OFFSET -28.1742 -1.7115 0.48768
            CHANNELS 3 Zrotation Xrotation Yrotation
            JOINT rHand
            {
              OFFSET -22.5879 0.773209 7.07136
              CHANNELS 3 Zrotation Xrotation Yrotation
              JOINT rThumb1
              {
                OFFSET -1.2192 -0.487915 3.41376
                CHANNELS 3 Zrotation Xrotation Yrotation
                JOINT rThumb2
                {
                  OFFSET -3.37035 -0.52449 3.41376
                  CHANNELS 3 Zrotation Xrotation Yrotation
                  End Site
                  {
                    OFFSET -1.78271 -1.18214 1.43049
                  }
                }
              }
              JOINT rIndex1
              {
                OFFSET -7.75947 0.938293 5.60832
                CHANNELS 3 Zrotation Xrotation Yrotation
                JOINT rIndex2
                {
                  OFFSET -2.54057 -0.884171 1.56538
                  CHANNELS 3 Zrotation Xrotation Yrotation
                  End Site
                  {
                    OFFSET -1.62519 -0.234802 1.16502
                  }
                }
              }
              JOINT rMid1
              {
                OFFSET -8.24714 1.18213 3.41376
                CHANNELS 3 Zrotation Xrotation Yrotation
                JOINT rMid2
                {
                  OFFSET -3.10165 -0.590103 1.0647
                  CHANNELS 3 Zrotation Xrotation Yrotation
                  End Site
                  {
                    OFFSET -2.48547 -0.328903 0.83742
                  }
                }
              }
              JOINT rRing1
              {
                OFFSET -8.82822 0.546677 1.51678
                CHANNELS 3 Zrotation Xrotation Yrotation
                JOINT rRing2
                {
                  OFFSET -2.60934 -0.819778 -0.0198488
                  CHANNELS 3 Zrotation Xrotation Yrotation
                  End Site
                  {
                    OFFSET -2.33842 -0.294052 0.168128
                  }
                }
              }
              JOINT rPinky1
              {
                OFFSET -8.27202 -0.0477905 -0.4584
                CHANNELS 3 Zrotation Xrotation Yrotation
                JOINT rPinky2
                {
                  OFFSET -1.82734 -0.647385 -0.700984
                  CHANNELS 3 Zrotation Xrotation Yrotation
                  End Site
                  {
                    OFFSET -1.69225 -0.51767 -0.607171
                  }
                }
              }
            }
          }
        }
      }
      JOINT lCollar
      {
        OFFSET 2.68224 19.2634 -4.8768
        CHANNELS 3 Zrotation Xrotation Yrotation
        JOINT lShldr
        {
          OFFSET 8.77824 -1.95073 1.46304
          CHANNELS 3 Zrotation Xrotation Yrotation
          JOINT lForeArm
          {
            OFFSET 28.1742 -1.7115 0.48768
            CHANNELS 3 Zrotation Xrotation Yrotation
            JOINT lHand
            {
              OFFSET 22.5879 0.773209 7.07136
              CHANNELS 3 Zrotation Xrotation Yrotation
              JOINT lThumb1
              {
                OFFSET 1.2192 -0.487915 3.41376
                CHANNELS 3 Zrotation Xrotation Yrotation
                JOINT lThumb2
                {
                  OFFSET 3.37035 -0.52449 3.41376
                  CHANNELS 3 Zrotation Xrotation Yrotation
                  End Site
                  {
                    OFFSET 1.78271 -1.18214 1.43049
                  }
                }
              }
              JOINT lIndex1
              {
                OFFSET 7.75947 0.938293 5.60832
                CHANNELS 3 Zrotation Xrotation Yrotation
                JOINT lIndex2
                {
                  OFFSET 2.54057 -0.884171 1.56538
                  CHANNELS 3 Zrotation Xrotation Yrotation
                  End Site
                  {
                    OFFSET 1.62519 -0.234802 1.16502
                  }
                }
              }
              JOINT lMid1
              {
                OFFSET 8.24714 1.18213 3.41376
                CHANNELS 3 Zrotation Xrotation Yrotation
                JOINT lMid2
                {
                  OFFSET 3.10165 -0.590103 1.0647
                  CHANNELS 3 Zrotation Xrotation Yrotation
                  End Site
                  {
                    OFFSET 2.48547 -0.328903 0.83742
                  }
                }
              }
              JOINT lRing1
              {
                OFFSET 8.82822 0.546677 1.51678
                CHANNELS 3 Zrotation Xrotation Yrotation
                JOINT lRing2
                {
                  OFFSET 2.60934 -0.819778 -0.0198488
                  CHANNELS 3 Zrotation Xrotation Yrotation
                  End Site
                  {
                    OFFSET 2.33842 -0.294052 0.168128
                  }
                }
              }
              JOINT lPinky1
              {
                OFFSET 8.27202 -0.0477905 -0.4584
                CHANNELS 3 Zrotation Xrotation Yrotation
                JOINT lPinky2
                {
                  OFFSET 1.82734 -0.647385 -0.700984
                  CHANNELS 3 Zrotation Xrotation Yrotation
                  End Site
                  {
                    OFFSET 1.69225 -0.51767 -0.607171
                  }
                }
              }
            }
          }
        }
      }
    }
  }
  JOINT rButtock
  {
    OFFSET -8.77824 4.35084 1.2192
    CHANNELS 3 Zrotation Xrotation Yrotation
    JOINT rThigh
    {
      OFFSET 0 -1.70687 -2.19456
      CHANNELS 3 Zrotation Xrotation Yrotation
      JOINT rShin
      {
        OFFSET 0 -36.8199 0.73152
        CHANNELS 3 Zrotation Xrotation Yrotation
        JOINT rFoot
        {
          OFFSET 0.73152 -45.1104 -5.12064
          CHANNELS 3 Zrotation Xrotation Yrotation
          End Site
          {
            OFFSET -1.1221 -3.69964 12.103
          }
        }
      }
    }
  }
  JOINT lButtock
  {
    OFFSET 8.77824 4.35084 1.2192
    CHANNELS 3 Zrotation Xrotation Yrotation
    JOINT lThigh
    {
      OFFSET 0 -1.70687 -2.19456
      CHANNELS 3 Zrotation Xrotation Yrotation
      JOINT lShin
      {
        OFFSET 0 -36.8199 0.73152
        CHANNELS 3 Zrotation Xrotation Yrotation
        JOINT lFoot
        {
          OFFSET -0.73152 -45.1104 -5.12064
          CHANNELS 3 Zrotation Xrotation Yrotation
          End Site
          {
            OFFSET 1.1221 -3.69964 12.103
          }
        }
      }
    }
  }
}
MOTION
Frames:	4
Frame Time:	0.03333
-5.992576463147998 -0.11154637485742569 9.311909284209833 23.350104689598083 21.89615160226822 -18.325766623020172 -12.774087488651276 11.323324888944626 -2.221527546644211 3.767472021281719 -9.881446436047554 5.108022317290306 -7.033236846327782 23.571453988552094 -12.673418819904327 18.025037348270416 -18.66610676050186 -25.028328001499176 3.6689266562461853 3.45919132232666 0.36564476788043976 0.5639727506786585 -2.494637444615364 -10.59332013130188 -1.145329736173153 5.457804165780544 -0.840894402936101 40.14283061027527 32.75670826435089 19.771359264850616 -19.395930469036102 -17.221419364213943 41.06408089399338 -5.9141407907009125 -30.737721025943756 -8.682256937026978 -0.8646692521870136 -1.2282759603112936 3.744850605726242 -1.7162144556641579 -0.5605352902784944 -0.3793148137629032 3.3665045723319054 1.58806923776865 4.717664681375027 3.7997108325362206 1.504442822188139 -4.209415912628174 2.23173301666975 5.0338005647063255 -0.6387251615524292 1.1966167576611042 2.0370421931147575 -1.570519544184208 -6.813218593597412 2.1942923963069916 -0.4048915207386017 9.71321627497673 -4.92545273154974 0.7190486043691635 -4.813756495714188 2.8791827335953712 -1.0362217482179403 6.600379943847656 -3.807459734380245 -1.6166813671588898 -6.860438883304596 -1.0190925747156143 1.0870136506855488 -41.472793221473694 40.846693217754364 -39.3106672167778 31.312952935695648 -16.539051979780197 -55.6402587890625 -16.221635341644287 -26.51734560728073 8.828212693333626 -7.60019950568676 -2.904909811913967 -1.1820529494434595 -7.408064156770706 0.4407184571027756 -1.2796607986092567 -5.232295095920563 -1.7427683249115944 -2.358383908867836 -11.742815673351288 2.9657647758722305 -1.8955900333821774 -9.18277658522129 4.262446537613869 5.2032072097063065 -1.9955122098326683 -2.525019161403179 -6.5800052136182785 -4.524340108036995 -0.03436664119362831 -1.032680394127965 -11.917593777179718 3.0624134838581085 -1.6447919234633446 3.0747368931770325 -0.7849051337689161 -1.441526748239994 -3.5514452308416367 1.600711327046156 2.9340137913823128 3.146461173892021 1.3999170530587435 -5.321361869573593 -35.31197905540466 -61.47522747516632 -45.93930423259735 9.355514198541641 65.38592040538788 -1.1659616231918335 -5.5878473818302155 -6.618808060884476 -13.971409499645233 -5.63605472445488 -2.6026481576263905 1.2557978555560112 28.752288222312927 -0.4661974310874939 6.198684275150299 0.25984302163124084 27.426448166370392 -13.573373705148697 4.540127255022526 1.3915233314037323 22.169751673936844
-6.484760595485568 0.1706923246383667 10.145844843005762 19.876134395599365 23.039692640304565 -21.39450877904892 -16.263455003499985 10.347879230976105 -0.29792435467243195 3.5416779667139053 -9.984087198972702 5.305781587958336 -7.101573497056961 22.717328667640686 -11.458592712879181 16.006782352924347 -19.03005301952362 -23.066324293613434 4.006199017167091 4.520130045711994 1.7332803457975388 1.5277530625462532 -3.691236600279808 -9.345462620258331 -0.9608655050396919 6.410374939441681 -0.5841158051043749 39.22748923301697 32.56227493286133 18.58348399400711 -19.21712636947632 -16.59682273864746 43.66957068443298 -6.416261717677116 -32.08085060119629 -7.407534420490265 -0.30652301385998726 -2.02847957611084 3.53353813290596 -2.378408946096897 -0.49825842026621103 -2.408057413995266 2.9617374390363693 1.437382735311985 4.038386531174183 3.2718805968761444 1.4428147114813328 -5.219799354672432 2.268044091761112 4.510473422706127 -0.18069103360176086 0.9412905760109425 1.5139225870370865 -1.6794370114803314 -6.93408764898777 2.5925280153751373 -0.30838966369628906 10.025102198123932 -5.6330908834934235 0.11206772178411484 -3.425469249486923 3.0624620988965034 -0.6362453754991293 6.292596459388733 -3.4816766157746315 -1.7251954972743988 -7.63524055480957 -0.4334181547164917 0.43663932010531425 -38.646192848682404 37.311962842941284 -41.4194118976593 32.23366141319275 -16.732732951641083 -57.59540677070618 -15.123592615127563 -23.4383225440979 8.6874570697546 -7.40328848361969 -2.863781489431858 -0.6350452546030283 -7.006534785032272 1.121780276298523 -1.5314236655831337 -6.812022998929024 -1.075865551829338 -3.479987494647503 -11.307093501091003 3.2592420279979706 -0.6690105702728033 -9.026057794690132 3.621991351246834 4.894256293773651 -1.0927336290478706 -1.5964873507618904 -6.11794576048851 -3.85329432785511 0.11034591123461723 -0.7711170706897974 -11.845993548631668 3.058760315179825 -1.7640523239970207 3.24615016579628 -0.8517503086477518 -1.2836676836013794 -3.82243350148201 2.9165207594633102 1.459842212498188 3.311361037194729 3.4537585079669952 -5.320995412766933 -36.545408964157104 -60.44679880142212 -47.159178256988525 11.27253457903862 67.94241428375244 0.36987796425819397 -5.682970583438873 -7.145872861146927 -15.83228051662445 -5.8303190767765045 -3.2285625860095024 1.1701668240129948 31.326455175876617 -0.7501602172851562 8.467283248901367 2.020883560180664 26.57089054584503 -17.008788585662842 2.6410139724612236 3.7894584238529205 18.326673209667206
-7.046293033286929 0.6832537055015564 11.092954661464319 10.333550870418549 28.860619962215424 -20.079947412014008 -22.344929426908493 9.528332948684692 2.3948492109775543 3.3255241066217422 -11.140807271003723 5.724852606654167 -6.622774377465248 22.344886511564255 -11.01847842335701 13.12062218785286 -20.901630073785782 -17.687816619873047 3.5096758604049683 4.954844377934933 1.8028930574655533 0.8780872542411089 -6.396220922470093 -8.425163179636002 0.18355261534452438 7.017101347446442 0.5293140839785337 36.269736886024475 33.80340814590454 23.022282421588898 -18.96098881959915 -16.46012932062149 50.19146382808685 -8.387902602553368 -34.37563866376877 -5.977258533239365 -0.6375283934175968 -1.8257005512714386 1.5119652450084686 -4.940358437597752 -1.607805099338293 -3.45951821655035 3.285897821187973 1.6336433216929436 2.9038288816809654 4.036480486392975 2.770073991268873 -6.364592984318733 2.248912565410137 5.93306377530098 0.0758642703294754 -0.2390342764556408 0.4256303608417511 -0.9324652701616287 -7.3875124007463455 5.255170986056328 -0.36125298589468 11.561652570962906 -5.298018269240856 -1.3633685186505318 -1.3993124663829803 4.725619442760944 -1.9855045527219772 5.0514548644423485 -2.861471101641655 -2.395435944199562 -8.189998492598534 -0.3936688229441643 -0.4639475606381893 -37.70084023475647 37.0262485742569 -45.31760036945343 33.58377009630203 -20.454682856798172 -65.40310263633728 -14.66436892747879 -19.354798793792725 11.743425875902176 -4.835170917212963 -2.4120981618762016 0.02830727957189083 -6.47549495100975 1.262354850769043 -1.0205993056297302 -7.434766888618469 -0.40623849257826805 -4.035625532269478 -10.896970331668854 2.9227491840720177 0.9217246994376183 -7.852520272135735 3.5969341546297073 4.310198575258255 0.10481972247362137 -0.08291210979223251 -5.739113241434097 -3.6929384618997574 -0.1040167361497879 -1.4005587715655565 -11.944362223148346 1.1622926965355873 -2.1975164115428925 3.7550322711467743 -0.8417485188692808 -1.95609949529171 -3.005000129342079 5.211538150906563 0.5679298471659422 2.9673804715275764 7.377810850739479 -4.179392606019974 -37.86610186100006 -58.84082615375519 -50.39925992488861 9.84206423163414 76.71266376972198 2.4663126468658447 -4.640755020081997 -7.459142133593559 -19.235114604234695 -6.400077939033508 -4.868283793330193 1.150289811193943 28.493734002113342 -2.452455013990402 6.051968112587929 -1.3241127133369446 24.934667944908142 -19.583321660757065 0.7746005058288574 9.83353078365326 14.191919267177582
-7.619160545989871 1.3859657049179077 11.918373431777582 5.668196976184845 26.48452877998352 -9.392929673194885 -27.433834969997406 8.185451477766037 7.252041399478912 0.06631661206483841 -14.166060090065002 5.037689432501793 -7.293122112751007 18.89775440096855 -11.723938286304474 10.278916284441948 -18.323213160037994 -9.420876950025558 2.8668200969696045 2.0253370329737663 1.081295683979988 -0.3159178700298071 -6.407507658004761 -4.836601205170155 1.8038388714194298 4.849873445928097 -0.1423774380236864 30.079659819602966 38.45318377017975 23.041886687278748 -19.146934300661087 -15.466829538345337 57.25470721721649 -8.65224502980709 -27.712342143058777 -3.198338784277439 -2.169224638491869 -1.9327515363693237 -0.24530276656150818 -3.6463334038853645 1.2235474772751331 -4.574624486267567 3.4972022473812103 0.1998879387974739 -0.20651232451200485 7.153210714459419 4.440026879310608 -7.6158421486616135 2.639191411435604 7.210984826087952 1.0796462930738926 -0.6367401592433453 1.9613522663712502 0.24491921067237854 -6.573449894785881 5.42572595179081 -0.32900646328926086 12.505893409252167 -7.218686789274216 -1.2431076541543007 -0.09939193725585938 4.077662117779255 0.43060258962213993 3.050360642373562 -0.8497492969036102 0.7604149729013443 -4.978768676519394 -0.623946525156498 -0.5767019279301167 -39.924560487270355 38.963288962841034 -38.27455401420593 34.128368496894836 -18.795720487833023 -68.53061199188232 -10.424522012472153 -21.926524937152863 12.07196295261383 0.8102665096521378 0.05907862912863493 1.0569592472165823 -4.775794185698032 2.1142499148845673 -2.2960808873176575 -9.318735748529434 0.18470864742994308 -4.291441887617111 -10.819723382592201 2.8709855675697327 2.4834301695227623 -3.8511237502098083 2.6543215848505497 3.7558624148368835 1.7424964159727097 2.240094132721424 -6.126919090747833 -5.593765005469322 -0.3124329261481762 0.7428578194230795 -12.462438941001892 0.6588021665811539 -1.6170893982052803 3.2046470046043396 -0.7049635704606771 -0.9933950006961823 -4.4781263172626495 5.791963487863541 0.9950394462794065 3.4450188651680946 9.830689653754234 -2.0313790440559387 -35.668702125549316 -54.887298345565796 -46.233113408088684 13.989657908678055 86.63593053817749 1.7171716690063477 -4.032377377152443 -10.767015963792801 -18.39510440826416 -7.775141894817352 -7.296017557382584 0.7970777526497841 24.854485988616943 -7.394442558288574 8.547874242067337 -1.988326907157898 31.666519045829773 -15.836069136857986 -4.175614714622498 14.703911393880844 9.304043278098106
